<?xml version="1.0" standalone="no"?>
<!DOCTYPE svg PUBLIC "-//W3C//DTD SVG 20010904//EN"
 "http://www.w3.org/TR/2001/REC-SVG-20010904/DTD/svg10.dtd">
<svg version="1.0" xmlns="http://www.w3.org/2000/svg"
 width="282.000000pt" height="290.000000pt" viewBox="0 0 282.000000 290.000000"
 preserveAspectRatio="xMidYMid meet">
<metadata>
Created by potrace 1.11, written by Peter Selinger 2001-2013
</metadata>
<g transform="translate(0.000000,290.000000) scale(0.100000,-0.100000)"
fill="#000000" stroke="none">
<path d="M1180 2795 c-432 -82 -790 -349 -980 -732 -86 -173 -140 -380 -140
-535 l0 -68 74 0 73 0 7 88 c24 293 142 549 351 757 190 190 424 306 698 346
l87 12 0 74 0 73 -52 -1 c-29 -1 -82 -7 -118 -14z"/>
<path d="M1470 1953 c0 -101 -25 -130 -138 -159 -70 -19 -119 -48 -143 -88
-45 -74 -3 -159 100 -202 48 -20 73 -18 39 4 -16 9 -35 31 -44 50 -14 30 -14
36 3 70 10 21 40 52 68 72 122 85 167 158 149 241 -12 56 -34 64 -34 12z"/>
<path d="M1575 1814 c-11 -68 -28 -83 -114 -105 -112 -27 -136 -135 -41 -184
44 -23 53 -18 29 15 -30 39 -18 66 54 119 73 54 97 86 97 130 0 56 -17 73 -25
25z"/>
<path d="M992 1390 c6 -84 41 -160 98 -218 22 -22 40 -43 40 -47 0 -4 -44 -4
-97 0 -118 9 -116 -1 10 -64 117 -59 199 -74 377 -68 158 5 227 21 326 78 94
53 92 61 -19 57 -53 -2 -97 0 -97 4 0 9 100 98 111 98 4 0 23 20 42 44 30 40
33 50 32 104 -1 57 0 61 23 67 13 3 22 8 19 11 -3 3 -22 1 -43 -5 -25 -7 -42
-7 -48 -1 -6 6 -157 10 -394 10 l-385 0 5 -70z"/>
<path d="M60 1322 c0 -35 43 -232 64 -296 115 -342 366 -630 690 -793 135 -68
375 -133 492 -133 l44 0 0 74 0 73 -89 12 c-515 66 -932 462 -1030 976 l-18
90 -76 3 c-42 2 -77 -1 -77 -6z"/>
<path d="M2616 1322 c-2 -4 -10 -39 -17 -78 -67 -393 -352 -748 -723 -903 -86
-36 -244 -76 -333 -86 l-63 -7 0 -75 0 -76 83 7 c322 25 667 209 886 472 163
196 266 421 305 664 7 44 10 82 8 85 -9 8 -140 6 -146 -3z"/>
</g>
</svg>
